<?xml version="1.0" encoding="UTF-8"?>
<!DOCTYPE svg PUBLIC "-//W3C//DTD SVG 1.1//EN" "http://www.w3.org/Graphics/SVG/1.1/DTD/svg11.dtd">
<!-- Creator: CorelDRAW -->
<svg xmlns="http://www.w3.org/2000/svg" xml:space="preserve" width="2000px" height="890px" version="1.1" style="shape-rendering:geometricPrecision; text-rendering:geometricPrecision; image-rendering:optimizeQuality; fill-rule:evenodd; clip-rule:evenodd"
viewBox="0 0 570444 253766"
 xmlns:xlink="http://www.w3.org/1999/xlink"
 xmlns:xodm="http://www.corel.com/coreldraw/odm/2003">
 <defs>
  <style type="text/css">
   <![CDATA[
    .fil0 {fill:none}
    .fil1 {fill:#025255}
    .fil3 {fill:#11A7E0}
    .fil2 {fill:#E5273C}
    .fil4 {fill:#FFC13D}
    .fil5 {fill:#025255;fill-rule:nonzero}
   ]]>
  </style>
 </defs>
 <g id="ISOLogotipo">
  <metadata id="CorelCorpID_0Corel-Layer"/>
  <rect id="Aire" class="fil0" width="570444" height="253766"/>
  <g id="Isotipo">
   <g id="Isotipo-H">
    <path class="fil1" d="M44179 40998l42412 0c1061,0 1768,707 1768,1768l0 110625c0,1060 -707,1767 -1768,1767l-42412 0c-1060,0 -1767,-707 -1767,-1767l0 -110625c0,-1061 707,-1768 1767,-1768z"/>
    <path class="fil1" d="M97548 40998l42412 0c1060,0 1767,707 1767,1768l0 110625c0,1060 -707,1767 -1767,1767l-42412 0c-1060,0 -1767,-707 -1767,-1767l0 -110625c0,-1061 707,-1768 1767,-1768z"/>
   </g>
   <path id="Isotipo-LineaRoja" class="fil2" d="M53722 59024l37111 0c1060,0 1767,706 1767,1767l0 2120c0,1061 -707,1768 -1767,1768l-37111 0c-1060,0 -1767,-707 -1767,-1768l0 -2120c0,-1061 707,-1767 1767,-1767z"/>
   <g id="Isotipo-LineasCeleste">
    <path class="fil3" d="M93660 79876l37111 0c1060,0 1767,707 1767,1768l0 2120c0,1061 -707,1767 -1767,1767l-37111 0c-1060,0 -1767,-706 -1767,-1767l0 -2120c0,-1061 707,-1768 1767,-1768z"/>
    <path class="fil3" d="M93660 90126l37111 0c1060,0 1767,707 1767,1767l0 2121c0,1060 -707,1767 -1767,1767l-37111 0c-1060,0 -1767,-707 -1767,-1767l0 -2121c0,-1060 707,-1767 1767,-1767z"/>
   </g>
   <g id="Isotipo-LineasAmarillo">
    <path class="fil4" d="M55489 110979l74575 0c1060,0 1767,706 1767,1767l0 2120c0,1061 -707,1768 -1767,1768l-74575 0c-1060,0 -1767,-707 -1767,-1768l0 -2120c0,-1061 707,-1767 1767,-1767z"/>
    <path class="fil4" d="M55489 121228l74575 0c1060,0 1767,707 1767,1767l0 2121c0,1060 -707,1767 -1767,1767l-74575 0c-1060,0 -1767,-707 -1767,-1767l0 -2121c0,-1060 707,-1767 1767,-1767z"/>
    <path class="fil4" d="M55489 131124l74575 0c1060,0 1767,707 1767,1768l0 2120c0,1061 -707,1767 -1767,1767l-74575 0c-1060,0 -1767,-706 -1767,-1767l0 -2120c0,-1061 707,-1768 1767,-1768z"/>
   </g>
  </g>
  <g id="UNLuPAW">
   <path id="letraUP-U" class="fil5" d="M180252 87298c10956,0 18378,-5655 18378,-18732l0 -27214 -11663 0 0 27568c0,5301 -2474,7775 -6715,7775 -3888,0 -6715,-2474 -6715,-8129l0 -27568 -11664 0 0 27215c0,12724 7422,18732 18379,18732l0 353z"/>
   <polygon id="letraUP-N" class="fil5" points="215242,86592 226552,86592 226552,62558 242456,86592 252706,86592 252706,41352 241396,41352 241396,63972 226198,41352 215242,41352 "/>
   <polygon id="letraUP-L" class="fil5" points="269317,86592 299006,86592 299006,75989 280981,75989 280981,41352 269317,41352 "/>
   <path id="letraUP-uMinuscula" class="fil5" d="M323040 87298c4594,0 7422,-2474 9189,-5301l0 4595 11310 0 0 -34991 -11310 0 0 20500c0,3181 -1767,4948 -4241,4948 -2474,0 -3888,-1767 -3888,-4948l0 -20500 -11310 0 0 24034c0,7069 3888,11663 10250,11663l0 0z"/>
   <path id="letraUP-P" class="fil5" d="M375348 86592l11663 0 0 -13077 4595 0c9896,0 17672,-5302 17672,-16259l0 -353c0,-10250 -7069,-15551 -17672,-15551l-16258 0 0 45239 0 1zm11663 -22620l0 -12724 3888 0c4241,0 6715,2121 6715,6362l0 353c0,3888 -2474,6362 -6362,6362l-4241 0 0 -353z"/>
   <path id="letraUP-A" class="fil5" d="M416700 86592l12017 0 2474 -8129 14137 0 2828 8129 12370 0 -15905 -45594 -11663 0 -15905 45594 -353 0zm17318 -17319l4241 -13430 4241 13430 -8482 0z"/>
   <polygon id="letraUP-W" class="fil5" points="479258,86592 490214,86592 497283,61851 504705,86592 515308,86592 528032,41352 516015,41352 509653,67506 502584,40998 492335,40998 485266,67506 478904,41352 466887,41352 "/>
  </g>
  <g id="Strapline">
   <polygon class="fil5" points="53722,195096 61144,195096 61144,191208 42412,191208 42412,195096 49834,195096 49834,214182 53722,214182 "/>
   <path id="_1_0" class="fil5" d="M65032 207466c0,-1060 0,-2120 353,-2827 354,-707 707,-1414 1061,-2121 353,-707 1060,-1060 1767,-1413 707,-354 1414,-354 2474,-354l353 0 0 -4241c-1413,0 -2827,353 -3887,1060 -1061,707 -1768,1767 -2474,3181l0 -3888 -3888 0 0 17319 3888 0 0 -6716 353 0z"/>
   <path id="_2_1" class="fil5" d="M86945 214182l0 -10250c0,-2474 -707,-4241 -1767,-5302 -1414,-1413 -3181,-1767 -5655,-1767 -1414,0 -2474,0 -3535,354 -1060,353 -2120,707 -2827,1060l1060 3181c707,-354 1414,-707 2474,-707 707,-353 1767,-353 2474,-353 1414,0 2474,353 3181,1060 707,707 1060,1414 1060,2827l0 354c-706,-354 -1413,-354 -2120,-354 -707,0 -1767,-353 -2828,-353 -1060,0 -1767,0 -2827,353 -707,354 -1767,707 -2121,1061 -707,353 -1060,1060 -1414,1767 -353,707 -353,1414 -353,2474l0 0c0,707 0,1767 353,2474 354,707 707,1060 1414,1767 707,354 1061,707 2121,1060 707,354 1414,354 2474,354 1414,0 2474,-354 3181,-707 1060,-353 1767,-1060 2120,-1767l0 2121 3888 0 -353 -707zm-3888 -6362c0,707 0,1060 -353,1413 -354,354 -707,707 -1061,1061 -353,353 -1060,707 -1413,707 -707,0 -1061,353 -1767,353 -1061,0 -1768,-353 -2474,-707 -707,-353 -1061,-1060 -1061,-1767l0 0c0,-1060 354,-1414 1061,-2121 706,-353 1767,-706 2827,-706 707,0 1414,0 2121,353 707,0 1413,354 1767,354l0 1060 353 0z"/>
   <path id="_3_2" class="fil5" d="M108151 205346c0,-1414 -353,-2828 -707,-3888 -353,-1060 -1060,-2121 -1767,-2828 -707,-706 -1767,-1413 -2474,-1767 -1060,-353 -2121,-707 -2828,-707 -1413,0 -2474,354 -3534,1061 -1060,707 -1767,1413 -2474,2474l0 -9543 -3888 0 0 24034 3888 0 0 -2828c707,707 1414,1414 2474,2121 1060,707 2121,1060 3534,1060 1061,0 2121,-353 2828,-707 1060,-353 1767,-1060 2474,-1767 707,-707 1414,-1767 1767,-2827 354,-1061 707,-2474 707,-3888zm-3888 0c0,707 0,1767 -353,2474 -354,707 -707,1413 -1061,1767 -353,353 -1060,707 -1413,1060 -707,354 -1414,354 -1767,354 -707,0 -1414,0 -1768,-354 -706,-353 -1060,-707 -1767,-1060 -353,-354 -707,-1060 -1060,-1767 -354,-707 -354,-1414 -354,-2474 0,-707 0,-1767 354,-2121 353,-707 707,-1414 1060,-1767 354,-354 1061,-707 1767,-1060 707,-354 1414,-354 1768,-354 706,0 1413,0 1767,354 707,353 1060,706 1413,1060 354,353 707,1060 1061,1767 353,707 353,1414 353,2474l0 -353z"/>
   <path id="_4_3" class="fil5" d="M125469 214182l0 -10250c0,-2474 -706,-4241 -1767,-5302 -1414,-1413 -3181,-1767 -5655,-1767 -1413,0 -2474,0 -3534,354 -1060,353 -2121,707 -2828,1060l1061 3181c707,-354 1413,-707 2474,-707 707,-353 1767,-353 2474,-353 1413,0 2474,353 3181,1060 706,707 1060,1414 1060,2827l0 354c-707,-354 -1414,-354 -2121,-354 -707,0 -1767,-353 -2827,-353 -1061,0 -1767,0 -2828,353 -707,354 -1767,707 -2120,1061 -707,353 -1061,1060 -1414,1767 -354,707 -354,1414 -354,2474l0 0c0,707 0,1767 354,2474 353,707 707,1060 1414,1767 706,354 1060,707 2120,1060 707,354 1414,354 2474,354 1414,0 2474,-354 3181,-707 1060,-353 1767,-1060 2121,-1767l0 2121 3888 0 -354 -707zm-3887 -6362c0,707 0,1060 -354,1413 -353,354 -707,707 -1060,1061 -354,353 -1061,707 -1414,707 -707,0 -1060,353 -1767,353 -1060,0 -1767,-353 -2474,-707 -707,-353 -1060,-1060 -1060,-1767l0 0c0,-1060 353,-1414 1060,-2121 707,-353 1767,-706 2827,-706 707,0 1414,0 2121,353 707,0 1414,354 1767,354l0 1060 354 0z"/>
   <path id="_5_4" class="fil5" d="M133245 194036l0 -3888 -4241 0 0 3888 4241 0zm-4241 2827l0 17319c0,707 0,1413 -354,1767 -353,353 -707,353 -1413,353 -354,0 -707,0 -1061,0l0 3181c354,0 707,0 1061,0 353,0 706,0 1060,0 1767,0 2827,-353 3888,-1060 707,-707 1413,-2121 1413,-3888l0 -17672 -3887 0 -707 0z"/>
   <path id="_6_5" class="fil5" d="M151624 214182l0 -10250c0,-2474 -707,-4241 -1768,-5302 -1413,-1413 -3180,-1767 -5655,-1767 -1413,0 -2474,0 -3534,354 -1060,353 -2121,707 -2827,1060l1060 3181c707,-354 1414,-707 2474,-707 707,-353 1767,-353 2474,-353 1414,0 2474,353 3181,1060 707,707 1060,1414 1060,2827l0 354c-707,-354 -1414,-354 -2121,-354 -706,0 -1767,-353 -2827,-353 -1060,0 -1767,0 -2828,353 -706,354 -1767,707 -2120,1061 -707,353 -1060,1060 -1414,1767 -353,707 -353,1414 -353,2474l0 0c0,707 0,1767 353,2474 354,707 707,1060 1414,1767 707,354 1060,707 2120,1060 707,354 1414,354 2475,354 1413,0 2474,-354 3180,-707 1061,-353 1768,-1060 2121,-1767l0 2121 3888 0 -353 -707zm-3888 -6362c0,707 0,1060 -354,1413 -353,354 -707,707 -1060,1061 -354,353 -1060,707 -1414,707 -707,0 -1060,353 -1767,353 -1060,0 -1767,-353 -2474,-707 -707,-353 -1060,-1060 -1060,-1767l0 0c0,-1060 353,-1414 1060,-2121 707,-353 1767,-706 2828,-706 706,0 1413,0 2120,353 707,0 1414,354 1767,354l0 1060 354 0z"/>
   <path id="_7" class="fil5" d="M159046 204285c0,-1413 353,-2474 1060,-3180 707,-707 1767,-1061 2827,-1061 1061,0 2121,354 2828,1061 707,706 1060,1767 1060,3180l0 9897 3888 0 0 -10957c0,-2121 -707,-3534 -1767,-4948 -1060,-1060 -2474,-1767 -4595,-1767 -707,0 -1413,0 -1767,353 -707,0 -1060,354 -1414,707 -353,354 -706,707 -1060,1061 -353,353 -707,706 -1060,1060l0 -2828 -3888 0 0 17319 3888 0 0 -9897 0 0z"/>
   <path id="_8" class="fil5" d="M190855 214182l0 -24034 -3888 0 0 9189c-707,-706 -1414,-1413 -2474,-2120 -1060,-707 -2121,-1061 -3534,-1061 -1061,0 -2121,354 -2828,707 -1060,354 -1767,1061 -2474,1767 -707,707 -1414,1768 -1767,2828 -353,1060 -707,2474 -707,3888 0,1413 354,2827 707,3888 353,1060 1060,2120 1767,2827 707,707 1767,1414 2474,1767 1060,354 2121,707 2828,707 1413,0 2474,-353 3534,-1060 1060,-707 1767,-1414 2474,-2121l0 2828 3888 0zm-3888 -8483c0,707 0,1767 -353,2474 -354,707 -707,1414 -1061,1767 -353,354 -1060,707 -1767,1061 -707,353 -1414,353 -1767,353 -707,0 -1414,0 -1767,-353 -707,-354 -1061,-707 -1414,-1061 -353,-353 -707,-1060 -1060,-1767 -354,-707 -354,-1413 -354,-2474 0,-707 0,-1767 354,-2474 353,-707 707,-1414 1060,-1767 353,-353 1060,-707 1414,-1060 707,-354 1060,-354 1767,-354 707,0 1414,0 1767,354 707,353 1060,707 1767,1060 354,353 707,1060 1061,1767 353,707 353,1414 353,2121l0 353z"/>
   <path id="_9" class="fil5" d="M212061 205346c0,-1414 -354,-2474 -707,-3535 -353,-1060 -1060,-2120 -1767,-2827 -707,-707 -1767,-1414 -2828,-1767 -1060,-354 -2474,-707 -3534,-707 -1414,0 -2474,353 -3534,707 -1061,353 -2121,1060 -2828,2120 -707,707 -1413,1768 -1767,2828 -353,1060 -707,2120 -707,3534 0,1414 354,2474 707,3535 354,1060 1060,2120 1767,2827 707,707 1767,1414 2828,1767 1060,354 2474,707 3534,707 1414,0 2474,-353 3534,-707 1061,-353 2121,-1060 2828,-2120 707,-707 1414,-1768 1767,-2828 354,-1060 707,-2121 707,-3534zm-3888 0c0,707 0,1413 -353,2120 -354,707 -707,1414 -1061,1768 -353,353 -1060,1060 -1767,1060 -707,353 -1414,353 -2121,353 -706,0 -1413,0 -2120,-353 -707,-354 -1060,-707 -1767,-1060 -354,-354 -707,-1061 -1061,-1768 -353,-706 -353,-1413 -353,-2120 0,-707 0,-1414 353,-2121 354,-707 707,-1414 1061,-1767 353,-354 1060,-1060 1767,-1060 707,-354 1414,-354 2120,-354 707,0 1414,0 2121,354 707,353 1060,706 1767,1060 354,353 707,1060 1061,1767 353,707 353,1414 353,2121z"/>
   <path id="_10" class="fil5" d="M229026 194036l0 -3888 -4241 0 0 3888 4241 0zm-4241 2827l0 17319c0,707 0,1413 -354,1767 -353,353 -707,353 -1414,353 -353,0 -706,0 -1060,0l0 3181c354,0 707,0 1060,0 354,0 707,0 1061,0 1767,0 2827,-353 3888,-1060 706,-707 1413,-2121 1413,-3888l0 -17672 -3888 0 -706 0z"/>
   <path id="_11" class="fil5" d="M243870 206406c0,1414 -353,2474 -1060,3181 -707,707 -1767,1060 -2828,1060 -1060,0 -2120,-353 -2827,-1060 -707,-707 -1061,-1767 -1061,-3181l0 -9896 -3887 0 0 10956c0,2121 706,3535 1767,4948 1060,1061 2474,1768 4594,1768 1414,0 2474,-354 3181,-1061 707,-707 1414,-1413 2121,-2120l0 2827 3888 0 0 -17318 -3888 0 0 9896 0 0z"/>
   <path id="_12" class="fil5" d="M255533 204285c0,-1413 354,-2474 1061,-3180 707,-707 1767,-1061 2827,-1061 1061,0 2121,354 2828,1061 707,706 1060,1767 1060,3180l0 9897 3888 0 0 -10957c0,-2121 -707,-3534 -1767,-4948 -1061,-1060 -2474,-1767 -4595,-1767 -707,0 -1414,0 -1767,353 -707,0 -1060,354 -1414,707 -353,354 -707,707 -1060,1061 -354,353 -707,706 -1060,1060l0 -2828 -3888 0 0 17319 3888 0 0 -9897 -1 0z"/>
   <path id="_13" class="fil5" d="M275326 200044l4594 0 0 -3534 -4594 0 0 -4595 -3888 0 0 4595 -2121 0 0 3534 2121 0 0 9190c0,1060 0,1767 353,2474 354,706 707,1060 1061,1413 353,354 1060,707 1767,707 707,0 1414,354 2121,354 706,0 1413,0 2120,-354 707,0 1061,-353 1767,-707l0 -3181c-706,354 -1767,707 -2474,707 -706,0 -1060,0 -1413,-353 -354,-354 -707,-1061 -707,-1767l0 -8483 -707 0z"/>
   <path id="_14" class="fil5" d="M299713 205346c0,-1414 -354,-2474 -707,-3535 -354,-1060 -1060,-2120 -1767,-2827 -707,-707 -1767,-1414 -2828,-1767 -1060,-354 -2474,-707 -3534,-707 -1414,0 -2474,353 -3534,707 -1061,353 -2121,1060 -2828,2120 -707,707 -1414,1768 -1767,2828 -354,1060 -707,2120 -707,3534 0,1414 354,2474 707,3535 353,1060 1060,2120 1767,2827 707,707 1767,1414 2828,1767 1060,354 2474,707 3534,707 1414,0 2474,-353 3534,-707 1061,-353 2121,-1060 2828,-2120 707,-707 1413,-1768 1767,-2828 353,-1060 707,-2121 707,-3534zm-3888 0c0,707 0,1413 -353,2120 -354,707 -707,1414 -1061,1768 -353,353 -1060,1060 -1767,1060 -707,353 -1414,353 -2121,353 -706,0 -1413,0 -2120,-353 -707,-354 -1061,-707 -1767,-1060 -354,-354 -707,-1061 -1061,-1768 -353,-706 -353,-1413 -353,-2120 0,-707 0,-1414 353,-2121 354,-707 707,-1414 1061,-1767 353,-354 1060,-1060 1767,-1060 707,-354 1413,-354 2120,-354 707,0 1414,0 2121,354 707,353 1060,706 1767,1060 354,353 707,1060 1061,1767 353,707 353,1414 353,2121z"/>
   <path id="_15" class="fil5" d="M314911 208880l0 0c0,-707 0,-1414 -354,-2121 -353,-706 -707,-1060 -1414,-1413 -353,-354 -1060,-707 -1767,-1061 -707,-353 -1414,-353 -1767,-706 -353,0 -1060,-354 -1414,-354 -353,0 -1060,-353 -1413,-353 -354,-354 -707,-354 -707,-707 -354,-354 -354,-354 -354,-707l0 0c0,-354 354,-1060 707,-1414 354,-353 1060,-353 1767,-353 707,0 1414,0 2474,353 707,354 1768,707 2474,1061l1414 -2828c-1060,-707 -1767,-1060 -3181,-1414 -1060,-353 -2120,-353 -3181,-353 -707,0 -1767,0 -2474,353 -707,354 -1413,707 -2120,1061 -707,353 -1061,1060 -1414,1767 -354,707 -354,1414 -354,2120l0 0c0,707 0,1414 354,2121 353,707 707,1060 1414,1414 353,353 1060,707 1767,1060 707,354 1414,354 1767,707 353,0 1060,353 1414,353 353,0 1060,354 1413,354 354,353 707,353 707,707 354,353 354,353 354,707l0 0c0,706 -354,1060 -707,1413 -354,354 -1060,354 -2121,354 -1060,0 -1767,-354 -2827,-707 -1061,-354 -1767,-1060 -2828,-1414l-1767 2828c1060,707 2121,1413 3534,1767 1414,353 2474,707 3888,707 1061,0 1767,0 2474,-354 707,-353 1414,-707 2121,-1060 707,-353 1060,-1060 1414,-1767 353,-707 353,-1414 353,-2474l354 353z"/>
   <path id="_16" class="fil5" d="M345306 205346c0,-1414 -354,-2828 -707,-3888 -353,-1060 -1060,-2121 -1767,-2828 -707,-706 -1767,-1413 -2474,-1767 -1060,-353 -2121,-707 -2828,-707 -1413,0 -2474,354 -3534,1061 -1060,707 -1767,1413 -2474,2474l0 -2828 -3888 0 0 22620 3888 0 0 -7775c707,706 1414,1413 2474,2120 1060,707 2121,1061 3534,1061 1061,0 2121,-354 2828,-707 1060,-354 1767,-1061 2474,-1767 707,-707 1414,-1768 1767,-2828 354,-1060 707,-2474 707,-3888l0 -353zm-3888 0c0,707 0,1767 -353,2474 -354,707 -707,1413 -1061,1767 -353,353 -1060,707 -1413,1060 -707,354 -1414,354 -1768,354 -706,0 -1413,0 -1767,-354 -707,-353 -1060,-707 -1767,-1060 -353,-354 -707,-1060 -1060,-1767 -354,-707 -354,-1414 -354,-2474 0,-707 0,-1767 354,-2121 353,-707 707,-1414 1060,-1767 354,-354 1060,-707 1767,-1060 707,-354 1414,-354 1767,-354 707,0 1414,0 1768,354 706,353 1060,706 1413,1060 354,353 707,1060 1061,1767 353,707 353,1414 353,2474l0 -353z"/>
   <path id="_17" class="fil5" d="M362624 214182l0 -10250c0,-2474 -707,-4241 -1767,-5302 -1414,-1413 -3181,-1767 -5655,-1767 -1414,0 -2474,0 -3534,354 -1061,353 -2121,707 -2828,1060l1061 3181c706,-354 1413,-707 2474,-707 706,-353 1767,-353 2474,-353 1413,0 2474,353 3180,1060 707,707 1061,1414 1061,2827l0 354c-707,-354 -1414,-354 -2121,-354 -707,0 -1767,-353 -2827,-353 -1061,0 -1768,0 -2828,353 -707,354 -1767,707 -2121,1061 -706,353 -1060,1060 -1413,1767 -354,707 -354,1414 -354,2474l0 0c0,707 0,1767 354,2474 353,707 707,1060 1413,1767 707,354 1061,707 2121,1060 707,354 1414,354 2474,354 1414,0 2474,-354 3181,-707 1060,-353 1767,-1060 2121,-1767l0 2121 3887 0 -353 -707zm-3888 -6362c0,707 0,1060 -353,1413 -353,354 -707,707 -1060,1061 -354,353 -1061,707 -1414,707 -707,0 -1060,353 -1767,353 -1061,0 -1767,-353 -2474,-707 -707,-353 -1061,-1060 -1061,-1767l0 0c0,-1060 354,-1414 1061,-2121 707,-353 1767,-706 2827,-706 707,0 1414,0 2121,353 707,0 1414,354 1767,354l0 1060 353 0z"/>
   <path id="_18" class="fil5" d="M369693 207466c0,-1060 0,-2120 353,-2827 354,-707 707,-1414 1061,-2121 353,-707 1060,-1060 1767,-1413 707,-354 1414,-354 2474,-354l353 0 0 -4241c-1413,0 -2827,353 -3887,1060 -1061,707 -1768,1767 -2474,3181l0 -3888 -3888 0 0 17319 3888 0 0 -6716 353 0z"/>
   <path id="_19" class="fil5" d="M391606 214182l0 -10250c0,-2474 -707,-4241 -1767,-5302 -1414,-1413 -3181,-1767 -5655,-1767 -1414,0 -2474,0 -3535,354 -1060,353 -2120,707 -2827,1060l1060 3181c707,-354 1414,-707 2474,-707 707,-353 1767,-353 2474,-353 1414,0 2474,353 3181,1060 707,707 1060,1414 1060,2827l0 354c-706,-354 -1413,-354 -2120,-354 -707,0 -1767,-353 -2828,-353 -1060,0 -1767,0 -2827,353 -707,354 -1767,707 -2121,1061 -707,353 -1060,1060 -1414,1767 -353,707 -353,1414 -353,2474l0 0c0,707 0,1767 353,2474 354,707 707,1060 1414,1767 707,354 1060,707 2121,1060 707,354 1413,354 2474,354 1414,0 2474,-354 3181,-707 1060,-353 1767,-1060 2120,-1767l0 2121 3888 0 -353 -707zm-3888 -6362c0,707 0,1060 -353,1413 -354,354 -707,707 -1061,1061 -353,353 -1060,707 -1413,707 -707,0 -1061,353 -1768,353 -1060,0 -1767,-353 -2474,-707 -706,-353 -1060,-1060 -1060,-1767l0 0c0,-1060 354,-1414 1060,-2121 707,-353 1768,-706 2828,-706 707,0 1414,0 2121,353 706,0 1413,354 1767,354l0 1060 353 0z"/>
   <path id="_20" class="fil5" d="M420234 211354l-2474 -2474c-707,707 -1414,1060 -2121,1414 -706,353 -1413,707 -2474,707 -706,0 -1413,0 -2120,-354 -707,-353 -1061,-707 -1767,-1060 -354,-354 -707,-1061 -1061,-1767 -353,-707 -353,-1414 -353,-2121 0,-707 0,-1414 353,-2121 354,-707 707,-1413 1061,-1767 353,-353 1060,-1060 1413,-1060 707,-354 1414,-354 2121,-354 1060,0 1767,354 2474,707 707,354 1414,1061 2121,1414l2474 -2828c-707,-1060 -1768,-1767 -2828,-2120 -1060,-707 -2474,-707 -4241,-707 -1414,0 -2474,353 -3534,707 -1061,353 -2121,1060 -2828,2120 -707,707 -1414,1768 -1767,2828 -354,1060 -707,2121 -707,3534 0,1414 354,2474 707,3535 353,1060 1060,2120 1767,2827 707,707 1767,1414 2828,1767 1060,354 2120,707 3534,707 1767,0 3181,-353 4241,-1060 1060,-707 2121,-1414 2828,-2474l353 0z"/>
   <path id="_21" class="fil5" d="M433665 206406c0,1414 -354,2474 -1061,3181 -706,707 -1767,1060 -2827,1060 -1060,0 -2121,-353 -2828,-1060 -706,-707 -1060,-1767 -1060,-3181l0 -9896 -3888 0 0 10956c0,2121 707,3535 1767,4948 1061,1061 2474,1768 4595,1768 1414,0 2474,-354 3181,-1061 707,-707 1414,-1413 2121,-2120l0 2827 3887 0 0 -17318 -3887 0 0 9896 0 0z"/>
   <path id="_22" class="fil5" d="M445681 194036l0 -3888 -4241 0 0 3888 4241 0zm0 19792l0 -17318 -3887 0 0 17318 3887 0z"/>
   <path id="_23" class="fil5" d="M466534 214182l0 -24034 -3888 0 0 9189c-707,-706 -1413,-1413 -2474,-2120 -1060,-707 -2120,-1061 -3534,-1061 -1060,0 -2121,354 -2828,707 -1060,354 -1767,1061 -2474,1767 -706,707 -1413,1768 -1767,2828 -353,1060 -707,2474 -707,3888 0,1413 354,2827 707,3888 354,1060 1061,2120 1767,2827 707,707 1768,1414 2474,1767 1061,354 2121,707 2828,707 1414,0 2474,-353 3534,-1060 1061,-707 1767,-1414 2474,-2121l0 2828 3888 0zm-3888 -8483c0,707 0,1767 -353,2474 -354,707 -707,1414 -1061,1767 -353,354 -1060,707 -1767,1061 -707,353 -1413,353 -1767,353 -707,0 -1414,0 -1767,-353 -707,-354 -1060,-707 -1414,-1061 -353,-353 -707,-1060 -1060,-1767 -354,-707 -354,-1413 -354,-2474 0,-707 0,-1767 354,-2474 353,-707 707,-1414 1060,-1767 354,-353 1061,-707 1414,-1060 707,-354 1414,-354 1767,-354 707,0 1414,0 1767,354 707,353 1061,707 1767,1060 354,353 707,1060 1061,1767 353,707 353,1414 353,2121l0 353z"/>
   <path id="_24" class="fil5" d="M484559 214182l0 -10250c0,-2474 -707,-4241 -1767,-5302 -1414,-1413 -3181,-1767 -5655,-1767 -1414,0 -2474,0 -3534,354 -1061,353 -2121,707 -2828,1060l1061 3181c706,-354 1413,-707 2474,-707 706,-353 1767,-353 2474,-353 1413,0 2474,353 3181,1060 706,707 1060,1414 1060,2827l0 354c-707,-354 -1414,-354 -2121,-354 -707,0 -1767,-353 -2827,-353 -1061,0 -1767,0 -2828,353 -707,354 -1767,707 -2120,1061 -707,353 -1061,1060 -1414,1767 -354,707 -354,1414 -354,2474l0 0c0,707 0,1767 354,2474 353,707 707,1060 1414,1767 706,354 1060,707 2120,1060 707,354 1414,354 2474,354 1414,0 2474,-354 3181,-707 1060,-353 1767,-1060 2121,-1767l0 2121 3888 0 -354 -707zm-3888 -6362c0,707 0,1060 -353,1413 -353,354 -707,707 -1060,1061 -354,353 -1061,707 -1414,707 -707,0 -1060,353 -1767,353 -1061,0 -1767,-353 -2474,-707 -707,-353 -1061,-1060 -1061,-1767l0 0c0,-1060 354,-1414 1061,-2121 707,-353 1767,-706 2827,-706 707,0 1414,0 2121,353 707,0 1414,354 1767,354l0 1060 353 0z"/>
   <path id="_25" class="fil5" d="M491981 207466c0,-1060 0,-2120 354,-2827 353,-707 707,-1414 1060,-2121 354,-707 1060,-1060 1767,-1413 707,-354 1414,-354 2474,-354l354 0 0 -4241c-1414,0 -2828,353 -3888,1060 -1060,707 -1767,1767 -2474,3181l0 -3888 -3888 0 0 17319 3888 0 0 -6716 353 0z"/>
   <path id="_26" class="fil5" d="M505059 200044l4594 0 0 -3534 -4594 0 0 -4595 -3888 0 0 4595 -2121 0 0 3534 2121 0 0 9190c0,1060 0,1767 353,2474 354,706 707,1060 1061,1413 353,354 1060,707 1767,707 707,0 1413,354 2120,354 707,0 1414,0 2121,-354 707,0 1060,-353 1767,-707l0 -3181c-707,354 -1767,707 -2474,707 -707,0 -1060,0 -1414,-353 -353,-354 -706,-1061 -706,-1767l0 -8483 -707 0z"/>
   <path id="letraE" class="fil5" d="M514601 206759l12724 0c0,-353 0,-353 0,-706 0,0 0,-354 0,-354 0,-1414 -354,-2474 -354,-3534 -353,-1061 -706,-2121 -1413,-2828 -707,-707 -1414,-1413 -2474,-2120 -1061,-354 -2121,-707 -3535,-707 -1413,0 -2474,353 -3534,707 -1060,353 -1767,1060 -2827,2120 -707,707 -1414,1767 -1768,2828 -353,1060 -706,2120 -706,3534 0,1414 353,2474 706,3534 354,1061 1061,2121 1768,2828 706,707 1767,1414 2827,1767 1060,354 2121,707 3534,707 1768,0 2828,-354 4242,-1060 1060,-707 2120,-1414 2827,-2474l-2474 -2121c-707,707 -1414,1060 -2121,1414 -706,353 -1413,353 -2474,353 -1413,0 -2474,-353 -3180,-1060 -1061,-707 -1414,-1767 -1768,-3181l0 353zm0 -2474c0,-1413 707,-2474 1414,-3180 707,-707 1767,-1414 3181,-1414 707,0 1414,0 1767,353 353,354 1060,707 1414,1061 353,353 707,1060 1060,1413 353,707 353,1061 353,1767l-8835 0 -354 0z"/>
  </g>
  <g id="ULHospitals">
   <path id="letraUH-U" class="fil5" d="M202872 110272l-7776 0 0 26154c0,4241 -1060,7422 -3181,9543 -2120,2120 -4948,3181 -8482,3181 -3535,0 -6362,-1061 -8483,-3181 -2120,-2121 -3180,-5302 -3180,-9543l0 -25801 -7776 0 0 26154c0,3181 353,6009 1414,8483 1060,2474 2120,4595 3888,6362 1767,1767 3887,2827 6008,3888 2474,706 4948,1413 8129,1413 2827,0 5655,-353 8129,-1413 2474,-707 4595,-2121 6008,-3888 1767,-1767 2828,-3888 3888,-6362 1060,-2474 1414,-5655 1414,-8836l0 -25801 0 -353z"/>
   <polygon id="letraUH-L" class="fil5" points="210294,155511 241749,155511 241749,148443 218069,148443 218069,110272 210294,110272 "/>
   <polygon id="letraUH-H" class="fil5" points="295472,136426 295472,155511 303247,155511 303247,110272 295472,110272 295472,129004 273912,129004 273912,110272 265783,110272 265783,155511 273912,155511 273912,136426 "/>
   <path id="letraUH-o" class="fil5" d="M344952 138547c0,-2474 -353,-4595 -1413,-7069 -1061,-2121 -2121,-3888 -3888,-5655 -1767,-1767 -3534,-2828 -5655,-3888 -2121,-1060 -4595,-1414 -7422,-1414 -2474,0 -4948,354 -7422,1414 -2121,1060 -4242,2121 -5655,3888 -1768,1767 -2828,3534 -3888,5655 -1061,2120 -1414,4595 -1414,7069 0,2474 354,4594 1414,7068 1060,2121 2120,3888 3888,5655 1767,1767 3534,2828 5655,3888 2120,1060 4594,1414 7068,1414 2474,0 4948,-354 7422,-1414 2121,-1060 4242,-2121 5655,-3888 1768,-1767 2828,-3534 3888,-5655 1061,-2120 1414,-4594 1414,-7068l353 0zm-7775 0c0,1413 -354,2827 -707,4241 -353,1413 -1060,2474 -2121,3534 -1060,1060 -2120,1767 -3180,2474 -1414,707 -2828,707 -4242,707 -1413,0 -2827,-354 -4241,-707 -1414,-707 -2474,-1414 -3181,-2474 -1060,-1060 -1767,-2121 -2120,-3534 -354,-1414 -707,-2828 -707,-4241 0,-1414 353,-2828 707,-4242 353,-1413 1060,-2474 2120,-3534 1061,-1060 2121,-1767 3181,-2474 1414,-707 2828,-707 4241,-707 1414,0 2828,354 4242,707 1413,707 2474,1414 3180,2474 1061,1060 1768,2121 2121,3534 354,1414 707,2828 707,4242z"/>
   <path id="letraUH-s1era" class="fil5" d="M373581 145262l0 0c0,-1414 -354,-2828 -1061,-3888 -706,-1060 -1413,-2121 -2474,-2828 -1060,-706 -2120,-1413 -3534,-1767 -1414,-353 -2474,-1060 -3888,-1413 -1060,-354 -2120,-707 -2827,-1061 -1061,-353 -1767,-707 -2474,-1060 -707,-354 -1414,-707 -1768,-1060 -353,-354 -706,-1061 -706,-1414l0 0c0,-1060 353,-1767 1413,-2474 707,-707 2121,-1060 3535,-1060 1413,0 2827,353 4594,706 1768,707 3181,1414 4948,2474l3181 -5655c-1767,-1060 -3888,-2120 -6008,-2827 -2121,-707 -4241,-1060 -6362,-1060 -1767,0 -3181,353 -4595,706 -1413,354 -2827,1061 -3887,2121 -1061,1060 -2121,2121 -2474,3181 -707,1414 -1061,2827 -1061,4241l0 0c0,1767 354,3181 1061,4241 706,1061 1413,2121 2474,2828 1060,707 2120,1414 3534,1767 1414,353 2474,1060 3888,1414 1060,353 2120,707 2827,707 1061,353 1767,706 2474,1060 707,353 1414,707 1767,1414 354,353 707,1060 707,1767l0 0c0,1060 -353,2120 -1413,2827 -1061,707 -2121,1061 -3888,1061 -1767,0 -3535,-354 -5655,-1061 -1767,-707 -3888,-1767 -5655,-3181l-3535 5302c2121,1767 4595,2827 7069,3888 2474,707 4948,1413 7422,1413 1767,0 3535,-353 4948,-706 1414,-354 2828,-1061 3888,-2121 1060,-1060 2121,-2121 2828,-3181 706,-1414 1060,-2827 1060,-4595l-353 -706z"/>
   <path id="letraUH-p" class="fil5" d="M413165 138547c0,-2828 -353,-5302 -1413,-7423 -1061,-2120 -2121,-4241 -3535,-5655 -1413,-1413 -3180,-2827 -4948,-3534 -1767,-707 -3887,-1060 -6008,-1060 -2827,0 -4948,707 -7069,1767 -1767,1060 -3534,2827 -4594,4595l0 -5655 -7776 0 0 44532 7776 0 0 -15551c1060,1767 2827,2828 4594,4241 1767,1061 4242,1768 7069,1768 2121,0 3888,-354 6008,-1061 1768,-707 3535,-1767 4948,-3534 1414,-1414 2828,-3535 3535,-5655 1060,-2121 1413,-4595 1413,-7422l0 -353zm-7775 0c0,1767 -354,3180 -707,4594 -354,1414 -1060,2474 -2121,3535 -1060,1060 -1767,1767 -3181,2120 -1060,354 -2474,707 -3887,707 -1414,0 -2474,-353 -3888,-707 -1061,-353 -2121,-1414 -3181,-2120 -1060,-1061 -1767,-2121 -2121,-3535 -707,-1413 -707,-2827 -707,-4594 0,-1768 354,-3181 707,-4595 707,-1414 1414,-2474 2121,-3534 1060,-1061 2121,-1768 3181,-2121 1060,-354 2474,-707 3888,-707 1413,0 2474,353 3887,707 1061,353 2121,1414 3181,2121 1061,1060 1414,2120 2121,3534 353,1414 707,2827 707,4595z"/>
   <path id="letraUH-i" class="fil5" d="M425889 115927l0 -7423 -8482 0 0 7423 8482 0zm-353 39584l0 -34283 -7776 0 0 34283 7776 0z"/>
   <path id="letraUH-t" class="fil5" d="M441440 127943l9190 0 0 -6715 -9190 0 0 -9542 -7775 0 0 9542 -4242 0 0 6715 4242 0 0 18026c0,1767 353,3534 707,4594 353,1414 1060,2474 2120,3181 1060,707 2121,1414 3181,1767 1060,354 2474,354 3888,354 1414,0 2827,0 3888,-354 1060,-353 2120,-706 3181,-1413l0 -6362c-1414,707 -3181,1060 -4948,1060 -1414,0 -2475,-353 -3181,-1060 -707,-707 -1061,-1767 -1061,-3181l0 -16965 0 353z"/>
   <path id="letraUH-a" class="fil5" d="M483499 155511l0 -20145c0,-4595 -1060,-8129 -3534,-10603 -2474,-2474 -6362,-3888 -11310,-3888 -2828,0 -5302,353 -7069,707 -2121,353 -3888,1060 -5655,2120l2121 6362c1413,-707 3181,-1060 4594,-1414 1414,-353 3181,-706 5302,-706 2827,0 4948,706 6362,1767 1413,1413 2120,3181 2120,5301l0 707c-1413,-353 -2827,-707 -4241,-1060 -1413,-354 -3181,-354 -5301,-354 -2121,0 -3888,354 -5655,707 -1767,354 -3181,1061 -4241,2121 -1061,1060 -2121,2120 -2828,3534 -707,1414 -1060,2828 -1060,4948l0 0c0,1767 353,3181 1060,4595 707,1414 1414,2474 2828,3181 1060,1060 2474,1413 3887,2120 1414,354 3181,707 4595,707 2474,0 4948,-353 6715,-1413 1767,-1061 3181,-2121 4595,-3535l0 4241 7775 0 -1060 0zm-7422 -12370c0,1061 -354,2121 -707,2828 -354,1060 -1060,1767 -1767,2120 -707,707 -1767,1061 -2828,1414 -1060,354 -2474,354 -3534,354 -1767,0 -3534,-354 -4595,-1414 -1413,-707 -1767,-2121 -1767,-3888l0 0c0,-1767 707,-3181 2121,-4241 1413,-1061 3181,-1414 5655,-1414 1413,0 2827,0 4241,354 1414,353 2474,706 3534,1060l0 2121 -353 706z"/>
   <polygon id="letraUH-l2da" class="fil5" points="497283,155511 497283,108151 489507,108151 489507,155511 "/>
   <path id="letraUH-s2da" class="fil5" d="M528032 145262l0 0c0,-1414 -354,-2828 -1061,-3888 -706,-1060 -1413,-2121 -2474,-2828 -1060,-706 -2120,-1413 -3534,-1767 -1414,-353 -2474,-1060 -3888,-1413 -1060,-354 -2120,-707 -2827,-1061 -1061,-353 -1767,-707 -2474,-1060 -707,-354 -1414,-707 -1767,-1060 -354,-354 -707,-1061 -707,-1414l0 0c0,-1060 353,-1767 1413,-2474 707,-707 2121,-1060 3535,-1060 1413,0 2827,353 4594,706 1768,707 3181,1414 4948,2474l3181 -5655c-1767,-1060 -3887,-2120 -6008,-2827 -2121,-707 -4241,-1060 -6362,-1060 -1767,0 -3181,353 -4595,706 -1413,354 -2827,1061 -3887,2121 -1061,1060 -2121,2121 -2474,3181 -707,1414 -1061,2827 -1061,4241l0 0c0,1767 354,3181 1061,4241 706,1061 1413,2121 2474,2828 1060,707 2120,1414 3534,1767 1414,353 2474,1060 3888,1414 1060,353 2120,707 2827,707 1061,353 1767,706 2474,1060 707,353 1414,707 1768,1414 353,353 706,1060 706,1767l0 0c0,1060 -353,2120 -1413,2827 -1061,707 -2121,1061 -3888,1061 -1767,0 -3535,-354 -5655,-1061 -1767,-707 -3888,-1767 -5655,-3181l-3535 5302c2121,1767 4595,2827 7069,3888 2474,707 4948,1413 7422,1413 1768,0 3535,-353 4948,-706 1414,-354 2828,-1061 3888,-2121 1061,-1060 2121,-2121 2828,-3181 707,-1414 1060,-2827 1060,-4595l-353 -706z"/>
  </g>
 </g>
</svg>
